<?xml version="1.0" standalone="no"?>
<!DOCTYPE svg PUBLIC "-//W3C//DTD SVG 20010904//EN"
 "http://www.w3.org/TR/2001/REC-SVG-20010904/DTD/svg10.dtd">
<svg version="1.0" xmlns="http://www.w3.org/2000/svg"
 width="260.000000pt" height="260.000000pt" viewBox="0 0 260.000000 260.000000"
 preserveAspectRatio="xMidYMid meet">
<metadata>
Created by potrace 1.11, written by Peter Selinger 2001-2013
</metadata>
<g transform="translate(0.000000,260.000000) scale(0.100000,-0.100000)"
fill="#000000" stroke="none">
<path d="M140 1300 l0 -1300 360 0 360 0 0 565 0 565 75 0 75 0 0 -330 0 -330
285 0 285 0 0 330 0 330 75 0 75 0 0 -565 0 -565 360 0 360 0 0 1300 0 1300
-360 0 -360 0 0 -155 0 -155 -145 0 -145 0 0 -160 0 -160 -145 0 -145 0 0 160
0 160 -145 0 -145 0 0 155 0 155 -360 0 -360 0 0 -1300z"/>
</g>
</svg>
